# xmcd
#
# Track frame offsets:
#	150
#	16153
#	33053
#	47670
#	63287
#	79425
#	95300
#	111303
#	125681
#	142799
#	160728
#	178295
#	196590
#	215830
#	230481
#	249379
#
# Disc length: 3505 seconds
#
# Revision: 1
# Processed by: cddbd v1.5.2PL0 Copyright (c) Steve Scherf et al.
# Submitted via: audiograbber 1.83.01
#
DISCID=d30daf10
DTITLE=Jamie McDell - Six Strings and a Sailboat
DYEAR=2012
DGENRE=
TTITLE0=Life in sunshine
TTITLE1=One step behind
TTITLE2=You'll never take that away
TTITLE3=Danny' song
TTITLE4=Angel
TTITLE5=Remind
TTITLE6=Lie
TTITLE7=All I need
TTITLE8=Sick with you
TTITLE9=Know my heart
TTITLE10=Get away
TTITLE11=Here to stay
TTITLE12=Bring me home
TTITLE13=Gypsy pirate
TTITLE14=Carry me
TTITLE15=Grey sky blue
EXTD=
EXTT0=
EXTT1=
EXTT2=
EXTT3=
EXTT4=
EXTT5=
EXTT6=
EXTT7=
EXTT8=
EXTT9=
EXTT10=
EXTT11=
EXTT12=
EXTT13=
EXTT14=
EXTT15=
PLAYORDER=
